<svg width="16" height="12" viewBox="0 0 16 12" fill="none" xmlns="http://www.w3.org/2000/svg">
<path fill-rule="evenodd" clip-rule="evenodd" d="M7.66699 0C7.4829 0 7.33366 0.149239 7.33366 0.333333V11.6667C7.33366 11.8508 7.4829 12 7.66699 12H8.33366C8.51775 12 8.66699 11.8508 8.66699 11.6667V0.333333C8.66699 0.149238 8.51775 0 8.33366 0H7.66699ZM0.862254 6.47141L3.29322 8.90237C3.42339 9.03254 3.63445 9.03254 3.76462 8.90237L4.23603 8.43097C4.3662 8.30079 4.3662 8.08974 4.23603 7.95956L2.94313 6.66667H5.66699C5.85109 6.66667 6.00033 6.51743 6.00033 6.33333V5.66667C6.00033 5.48257 5.85109 5.33333 5.66699 5.33333L2.94313 5.33333L4.23603 4.04044C4.3662 3.91027 4.3662 3.69921 4.23603 3.56904L3.76462 3.09763C3.63445 2.96746 3.42339 2.96746 3.29322 3.09763L0.862254 5.5286C0.601905 5.78895 0.601905 6.21106 0.862254 6.47141ZM15.1384 6.47141L12.7074 8.90237C12.5773 9.03254 12.3662 9.03254 12.236 8.90237L11.7646 8.43097C11.6344 8.30079 11.6344 8.08974 11.7646 7.95956L13.0575 6.66667H10.3337C10.1496 6.66667 10.0003 6.51743 10.0003 6.33333V5.66667C10.0003 5.48257 10.1496 5.33333 10.3337 5.33333L13.0575 5.33333L11.7646 4.04044C11.6344 3.91027 11.6344 3.69921 11.7646 3.56904L12.236 3.09763C12.3662 2.96746 12.5773 2.96746 12.7074 3.09763L15.1384 5.5286C15.3987 5.78895 15.3987 6.21106 15.1384 6.47141Z" fill="black"/>
</svg>
